<svg width="139" height="43" viewBox="0 0 139 43" fill="none" xmlns="http://www.w3.org/2000/svg">
<path d="M0.599609 37V0.90625H15.0371V7.87891H7.94141V14.9131H14.75V21.7012H7.94141V29.9658H15.5088V37H0.599609ZM25.4838 37.3281C23.7748 37.3281 22.4691 36.9316 21.5668 36.1387C20.6781 35.3457 20.0697 34.2588 19.7416 32.8779C19.4135 31.4971 19.2494 29.9316 19.2494 28.1816C19.2494 26.3086 19.434 24.7773 19.8031 23.5879C20.1723 22.3848 20.8012 21.4004 21.6898 20.6348C22.5922 19.8691 23.8295 19.2197 25.4018 18.6865L29.9545 17.1279V13.9697C29.9545 12.3154 29.4145 11.4883 28.3344 11.4883C27.35 11.4883 26.8578 12.1582 26.8578 13.498V15.3438H19.7211C19.7074 15.2344 19.7006 15.0977 19.7006 14.9336C19.7006 14.7559 19.7006 14.5576 19.7006 14.3389C19.7006 11.2764 20.4184 9.10938 21.8539 7.83789C23.3031 6.55273 25.5932 5.91016 28.724 5.91016C30.3646 5.91016 31.8344 6.2041 33.1332 6.79199C34.432 7.36621 35.4574 8.2207 36.2094 9.35547C36.975 10.4902 37.3578 11.8916 37.3578 13.5596V37H30.057V33.3496C29.7016 34.6348 29.1137 35.6191 28.2934 36.3027C27.473 36.9863 26.5365 37.3281 25.4838 37.3281ZM28.3754 31.627C28.977 31.627 29.3871 31.374 29.6059 30.8682C29.8246 30.3623 29.934 29.8154 29.934 29.2275V20.6553C28.9223 21.0654 28.1361 21.585 27.5756 22.2139C27.015 22.8291 26.7348 23.7383 26.7348 24.9414V28.8994C26.7348 30.7178 27.2816 31.627 28.3754 31.627ZM48.6043 37.3281C46.6219 37.3281 45.282 36.9111 44.5848 36.0771C43.9012 35.2295 43.5594 33.9375 43.5594 32.2012V13.0264H41.4881V7.42773H43.5594V0.90625H50.6961V7.42773H52.7674V13.0264H50.6961V30.4785C50.6961 30.9844 50.7781 31.3398 50.9422 31.5449C51.1063 31.75 51.4207 31.8525 51.8855 31.8525C52.2137 31.8525 52.5076 31.8252 52.7674 31.7705V36.7744C52.6033 36.8291 52.0906 36.9316 51.2293 37.082C50.368 37.2461 49.493 37.3281 48.6043 37.3281Z" fill="black"/>
<path d="M57.3488 37V0.90625H71.7863V7.87891H64.6906V14.9131H71.4992V21.7012H64.6906V29.9658H72.258V37H57.3488ZM82.233 37.3281C80.524 37.3281 79.2184 36.9316 78.316 36.1387C77.4273 35.3457 76.8189 34.2588 76.4908 32.8779C76.1627 31.4971 75.9986 29.9316 75.9986 28.1816C75.9986 26.3086 76.1832 24.7773 76.5523 23.5879C76.9215 22.3848 77.5504 21.4004 78.4391 20.6348C79.3414 19.8691 80.5787 19.2197 82.151 18.6865L86.7037 17.1279V13.9697C86.7037 12.3154 86.1637 11.4883 85.0836 11.4883C84.0992 11.4883 83.607 12.1582 83.607 13.498V15.3438H76.4703C76.4566 15.2344 76.4498 15.0977 76.4498 14.9336C76.4498 14.7559 76.4498 14.5576 76.4498 14.3389C76.4498 11.2764 77.1676 9.10938 78.6031 7.83789C80.0523 6.55273 82.3424 5.91016 85.4732 5.91016C87.1139 5.91016 88.5836 6.2041 89.8824 6.79199C91.1813 7.36621 92.2066 8.2207 92.9586 9.35547C93.7242 10.4902 94.107 11.8916 94.107 13.5596V37H86.8063V33.3496C86.4508 34.6348 85.8629 35.6191 85.0426 36.3027C84.2223 36.9863 83.2857 37.3281 82.233 37.3281ZM85.1246 31.627C85.7262 31.627 86.1363 31.374 86.3551 30.8682C86.5738 30.3623 86.6832 29.8154 86.6832 29.2275V20.6553C85.6715 21.0654 84.8854 21.585 84.3248 22.2139C83.7643 22.8291 83.484 23.7383 83.484 24.9414V28.8994C83.484 30.7178 84.0309 31.627 85.1246 31.627ZM107.466 37.3281C101.396 37.3281 98.3604 34.252 98.3604 28.0996V25.6592H105.743V29.2686C105.743 29.9658 105.88 30.5127 106.153 30.9092C106.427 31.3057 106.864 31.5039 107.466 31.5039C108.532 31.5039 109.065 30.7041 109.065 29.1045C109.065 27.7646 108.785 26.7666 108.225 26.1104C107.664 25.4404 106.98 24.7979 106.174 24.1826L102.257 21.168C101.026 20.2109 100.09 19.1992 99.4473 18.1328C98.8047 17.0664 98.4834 15.583 98.4834 13.6826C98.4834 11.9189 98.9004 10.4629 99.7344 9.31445C100.582 8.16602 101.696 7.31152 103.077 6.75098C104.472 6.19043 105.976 5.91016 107.589 5.91016C113.55 5.91016 116.53 8.88379 116.53 14.8311V15.4053H108.942V14.2363C108.942 13.6211 108.833 13.0264 108.614 12.4521C108.409 11.8779 107.999 11.5908 107.384 11.5908C106.345 11.5908 105.825 12.1377 105.825 13.2314C105.825 14.3389 106.263 15.207 107.138 15.8359L111.69 19.1582C113.112 20.1836 114.302 21.4004 115.259 22.8086C116.229 24.2168 116.715 26.0898 116.715 28.4277C116.715 31.3262 115.888 33.5342 114.233 35.0518C112.593 36.5693 110.337 37.3281 107.466 37.3281ZM120.476 42.127V37.4717H124.003C124.537 37.4717 124.803 37.2871 124.803 36.918C124.803 36.7266 124.783 36.5283 124.742 36.3232L119.922 6.23828H126.956L129.007 28.8789L131.427 6.23828H138.502L132.801 38.5996C132.596 39.7617 132.2 40.6367 131.612 41.2246C131.037 41.8262 130.087 42.127 128.761 42.127H120.476Z" fill="#F7F7F7"/>
</svg>
